<svg version="1.1" id="Layer_1" xmlns="http://www.w3.org/2000/svg" xmlns:xlink="http://www.w3.org/1999/xlink" x="0px" y="0px"
	 width="100%" viewBox="0 0 688 688" enable-background="new 0 0 688 688" xml:space="preserve">
<path fill="#000000" opacity="1.000000" stroke="none" 
	d="
M361.223389,455.248352 
	C358.359344,457.824768 355.611603,460.027924 353.222473,462.568298 
	C350.589722,465.367767 348.542023,465.243988 345.752930,462.611115 
	C334.485596,451.974701 323.049225,441.517120 311.654999,431.015503 
	C271.713470,394.202942 231.757843,357.405731 191.822998,320.585938 
	C185.778397,315.012848 185.814697,314.970154 191.149963,309.112579 
	C242.646881,252.574295 294.143280,196.035538 345.648956,139.505219 
	C346.752716,138.293793 347.626678,136.789124 349.639038,136.185806 
	C353.467773,138.921463 356.376038,142.808975 359.626678,146.301559 
	C407.190369,197.404968 454.700745,248.557983 502.216217,299.706238 
	C505.844696,303.612152 509.239014,307.755096 513.072815,311.444275 
	C515.879700,314.145233 515.433044,315.844910 512.737488,318.261108 
	C496.983154,332.382629 481.370483,346.662018 465.673981,360.848267 
	C442.933594,381.400635 420.152985,401.908478 397.408478,422.456268 
	C385.417480,433.289124 373.466705,444.166504 361.223389,455.248352 
M310.555084,229.977951 
	C299.250061,248.577530 287.945038,267.177094 276.536621,285.946808 
	C277.979431,286.917969 278.864655,287.664001 279.870819,288.169006 
	C302.638611,299.596985 325.435608,310.967010 348.175415,322.450287 
	C350.642395,323.696014 352.558685,323.039734 354.722900,321.952087 
	C376.742218,310.886353 398.787445,299.872162 420.807404,288.807739 
	C422.377167,288.019012 424.343079,287.632202 425.129669,285.206146 
	C400.707367,245.103485 376.169952,204.811783 351.030487,163.531464 
	C337.216827,186.219116 324.082672,207.790756 310.555084,229.977951 
M294.562347,310.046387 
	C286.521271,306.031158 278.437286,302.098480 270.463806,297.953278 
	C267.881531,296.610840 265.671234,296.472015 262.947784,297.633392 
	C253.614563,301.613434 244.164734,305.319275 234.776001,309.170166 
	C226.822357,312.432373 218.891708,315.750641 209.895294,319.481934 
	C254.933167,360.962280 299.185272,401.718964 344.027344,443.018982 
	C344.421783,441.093536 344.607117,440.610229 344.607513,440.126801 
	C344.635071,406.329254 344.605774,372.531555 344.726959,338.734406 
	C344.739044,335.359192 342.871826,334.128784 340.362793,332.883789 
	C325.303589,325.411316 310.276123,317.874939 294.562347,310.046387 
M363.437408,332.051514 
	C358.556885,333.513672 357.175873,336.659210 357.219727,341.787933 
	C357.483032,372.593048 357.339478,403.401550 357.379395,434.208893 
	C357.381683,435.962463 356.841919,437.830170 358.301544,440.148071 
	C402.713959,400.040833 446.968262,360.076385 491.549225,319.816956 
	C490.274719,319.014191 489.648010,318.481537 488.924622,318.183990 
	C471.997253,311.221771 455.040802,304.329742 438.142609,297.297638 
	C435.443726,296.174469 433.377777,297.086182 431.099976,298.226868 
	C408.775757,309.406647 386.431732,320.546936 363.437408,332.051514 
M277.764587,233.262497 
	C257.128540,256.031555 236.492523,278.800629 215.856506,301.569672 
	C227.257645,298.175415 237.832489,293.373688 248.757919,289.582123 
	C258.337463,286.257599 265.805725,281.283997 269.956451,271.641846 
	C271.845886,267.252716 274.923798,263.378235 277.434052,259.252930 
	C292.360443,234.723404 307.278503,210.188797 322.199341,185.655899 
	C322.043152,185.550232 321.886963,185.444550 321.730774,185.338882 
	C307.235168,201.138840 292.739563,216.938782 277.764587,233.262497 
M418.850433,249.718384 
	C424.888580,259.681274 430.981842,269.611420 436.929962,279.627808 
	C438.625610,282.483154 440.803864,284.377777 443.919769,285.620972 
	C456.434937,290.614319 468.870819,295.806274 481.341919,300.910400 
	C482.694000,301.463745 484.084290,301.923645 485.456879,302.426880 
	C485.591797,302.112457 485.726685,301.798004 485.861572,301.483551 
	C452.345245,265.384918 418.828918,229.286255 385.312561,193.187592 
	C385.101990,193.366699 384.891388,193.545792 384.680817,193.724899 
	C395.938141,212.185577 407.195435,230.646255 418.850433,249.718384 
z"/>
</svg>