<svg version="1.1" id="Layer_1" xmlns="http://www.w3.org/2000/svg" xmlns:xlink="http://www.w3.org/1999/xlink" x="0px" y="0px"
	 width="100%" viewBox="0 0 688 688" enable-background="new 0 0 688 688" xml:space="preserve">
<path fill="#000000" opacity="1.000000" stroke="none" 
	d="
M403.107666,154.787537 
	C418.916321,164.450897 434.382294,173.965698 449.912476,183.374527 
	C452.310425,184.827301 453.895111,186.799591 455.252960,189.140549 
	C471.804077,217.674942 488.345276,246.215240 504.988861,274.695648 
	C507.326111,278.695160 508.555389,282.693329 508.494446,287.418243 
	C508.296906,302.735046 508.435028,318.057129 508.556183,333.376282 
	C508.586121,337.156036 507.767578,340.472290 505.724213,343.741943 
	C488.860626,370.726135 472.099365,397.774384 455.379486,424.847931 
	C453.653564,427.642639 451.543701,429.675415 448.565155,431.135529 
	C434.359558,438.098969 420.212311,445.182434 406.089294,452.312408 
	C403.341736,453.699493 400.593597,454.405396 397.494507,454.399750 
	C364.830200,454.340332 332.165741,454.347595 299.501434,454.400208 
	C296.584686,454.404907 293.972229,453.787598 291.368195,452.471802 
	C276.944275,445.183685 262.488190,437.958313 247.997681,430.803467 
	C245.499359,429.569885 243.678909,427.868927 242.226501,425.517334 
	C225.067413,397.735413 207.874023,369.974640 190.639023,342.239746 
	C189.265396,340.029266 188.616776,337.794922 188.626724,335.190948 
	C188.691132,318.359009 188.697739,301.526581 188.627975,284.694702 
	C188.617142,282.081421 189.292755,279.803741 190.575500,277.594025 
	C207.972061,247.625275 225.364319,217.654022 242.715286,187.658875 
	C243.953445,185.518417 245.835068,184.246597 247.825897,183.027969 
	C264.167908,173.024704 280.534973,163.062119 296.839813,152.998642 
	C299.651978,151.262939 302.525146,150.595398 305.810486,150.604645 
	C333.641693,150.682922 361.473846,150.747833 389.303986,150.560837 
	C394.382324,150.526703 398.839233,151.421219 403.107666,154.787537 
M358.637207,302.738434 
	C380.412781,315.613068 402.207947,328.454803 423.938385,341.405151 
	C426.560944,342.968109 428.383636,343.326843 430.823212,340.866913 
	C450.164825,321.364288 469.594482,301.947937 489.135376,282.645142 
	C491.801300,280.011688 491.901703,277.992615 490.080322,274.880920 
	C475.703369,250.319138 461.422638,225.700470 447.256989,201.016281 
	C445.427399,197.828156 443.490692,196.578751 439.737793,197.297913 
	C412.817566,202.456604 385.868256,207.463562 358.919525,212.472229 
	C355.656464,213.078690 354.242981,214.516861 354.265106,218.149948 
	C354.423096,244.122192 354.398499,270.096069 354.285370,296.068787 
	C354.271942,299.152649 355.211853,301.176788 358.637207,302.738434 
M341.649078,250.500107 
	C341.648315,239.840393 341.484894,229.176880 341.735107,218.523056 
	C341.822632,214.796875 340.570374,213.087662 336.983765,212.423996 
	C310.357269,207.496918 283.745544,202.489899 257.134155,197.481613 
	C253.980240,196.888077 251.929733,197.760513 250.214600,200.748764 
	C235.876541,225.729553 221.441086,250.655289 206.853058,275.490753 
	C204.905777,278.805969 205.053726,280.827148 207.822479,283.569214 
	C226.755325,302.319519 245.591232,321.169556 264.272919,340.169800 
	C267.204620,343.151520 269.278870,343.184692 272.727448,341.108398 
	C294.267303,328.139862 315.919922,315.357300 337.617310,302.653351 
	C340.581543,300.917755 341.753326,298.902130 341.716583,295.470703 
	C341.559601,280.815277 341.649048,266.157227 341.649078,250.500107 
M319.502258,441.655914 
	C343.501434,441.655090 367.501434,441.550476 391.498932,441.750549 
	C395.739380,441.785919 397.619537,440.441498 398.859406,436.382446 
	C406.541809,411.233063 414.414154,386.140656 422.422852,361.093140 
	C423.574554,357.491211 422.651886,355.771606 419.559998,353.954559 
	C397.010437,340.702576 374.519745,327.348999 352.107239,313.866699 
	C348.853241,311.909241 346.392914,312.422150 343.398163,314.213989 
	C322.096466,326.959320 300.769409,339.664307 279.326508,352.169647 
	C275.748627,354.256256 275.036957,356.257904 276.287720,360.173218 
	C284.135437,384.739960 291.657684,409.410522 299.444794,433.996918 
	C302.305786,443.030060 300.865814,441.486206 310.004150,441.647278 
	C312.836517,441.697235 315.670502,441.655640 319.502258,441.655914 
M221.704315,315.789185 
	C215.002396,309.745300 209.415451,302.494263 201.350937,296.433380 
	C201.350937,308.371796 201.424301,319.330475 201.304596,330.287048 
	C201.270340,333.423767 202.055069,336.103210 203.705887,338.747314 
	C217.736282,361.220032 232.029556,383.539673 245.511871,406.338135 
	C250.925766,415.492981 257.506165,422.267578 267.464905,426.101837 
	C273.420319,428.394775 278.993561,431.680298 284.585358,434.443909 
	C285.677338,433.076538 285.175476,432.294159 284.939667,431.537903 
	C277.309479,407.068512 269.643341,382.610321 262.059631,358.126587 
	C261.221100,355.419434 259.414337,353.564819 257.531769,351.679077 
	C245.757980,339.885223 233.985168,328.090393 221.704315,315.789185 
M435.233826,363.573608 
	C428.023193,386.661255 420.812561,409.748871 413.184998,434.171570 
	C422.921631,429.319977 431.208893,425.107330 439.579010,421.066284 
	C442.402771,419.702972 444.345581,417.748657 445.991211,415.081238 
	C461.556305,389.851929 477.196014,364.668335 492.931610,339.545105 
	C494.774445,336.602844 495.783875,333.739838 495.725159,330.233032 
	C495.557892,320.240295 495.699005,310.242737 495.633118,300.247650 
	C495.624207,298.894440 496.343536,297.249146 494.431427,295.982971 
	C493.000244,297.293549 491.489899,298.568970 490.100891,299.965118 
	C476.120789,314.017303 462.383240,328.321075 448.091309,342.047974 
	C441.899811,347.994690 436.997406,354.260986 435.233826,363.573608 
M332.758118,198.609253 
	C339.632446,199.258087 346.205627,202.072693 353.409180,200.518005 
	C365.254944,197.961456 377.212494,195.923004 389.122925,193.666077 
	C401.943329,191.236710 414.763733,188.807312 427.873932,186.323013 
	C426.388092,184.101822 424.544281,183.266556 422.883026,182.244415 
	C413.809601,176.661636 404.671173,171.183624 395.636749,165.538834 
	C393.127289,163.970901 390.594177,163.321823 387.645996,163.331940 
	C365.498016,163.407959 343.332458,163.887085 321.208618,163.151138 
	C310.024231,162.779083 300.421631,165.088074 291.368530,171.575790 
	C284.278564,176.656631 276.587189,180.898209 267.936554,186.274979 
	C290.253784,190.534637 311.080872,194.509872 332.758118,198.609253 
z"/>
</svg>