<svg version="1.1" id="Layer_1" xmlns="http://www.w3.org/2000/svg" xmlns:xlink="http://www.w3.org/1999/xlink" x="0px" y="0px"
	 width="100%" viewBox="0 0 688 688" enable-background="new 0 0 688 688" xml:space="preserve">
<path fill="#000000" opacity="1.000000" stroke="none" 
	d="
M409.081604,139.854614 
	C437.926849,156.592194 466.410553,173.224884 495.005188,189.664658 
	C501.243622,193.251282 504.473755,198.548279 505.099060,205.348221 
	C506.377686,219.252823 507.201141,233.198563 508.352722,247.115723 
	C509.846558,265.169678 511.516022,283.209015 513.036987,301.260803 
	C514.181763,314.847382 515.234314,328.441895 516.285339,342.036163 
	C517.054260,351.982361 517.478638,361.964111 518.565063,371.874237 
	C519.578064,381.114838 516.162109,387.668549 508.202881,392.151581 
	C480.045380,408.011292 451.902100,423.896271 423.753632,439.772034 
	C402.424561,451.801605 381.033478,463.723175 359.799408,475.918182 
	C351.991028,480.402679 344.688263,480.654694 336.710632,476.252319 
	C291.059631,451.060333 245.320053,426.028687 199.572220,401.012665 
	C192.725052,397.268494 188.651932,391.845428 188.280243,383.988922 
	C187.729431,372.346405 187.338470,360.696320 186.886810,349.049133 
	C186.506149,339.232300 186.443314,329.410522 186.028534,319.588013 
	C184.911469,293.134369 184.409424,266.654999 183.613510,240.187378 
	C183.403305,233.197418 182.936874,226.215179 182.725113,219.225235 
	C182.483093,211.236603 185.758087,205.237381 192.673935,200.942123 
	C239.803513,171.671204 286.962158,142.444626 333.877167,112.832672 
	C343.687500,106.640556 352.321381,106.382927 362.155853,112.460571 
	C377.454865,121.915260 393.202423,130.644043 409.081604,139.854614 
M406.029785,338.601288 
	C421.231659,307.190338 436.433502,275.779388 452.346039,242.899994 
	C392.471039,248.107697 334.151276,253.180130 274.715088,258.349670 
	C306.220612,311.407959 336.996216,363.236969 368.397949,416.120483 
	C381.285370,389.585052 393.501678,364.431488 406.029785,338.601288 
M286.093201,410.247498 
	C309.990631,415.721008 333.888031,421.194489 357.785431,426.667999 
	C358.116913,426.290375 358.448364,425.912750 358.779816,425.535095 
	C327.402527,372.588074 296.025208,319.641022 264.010193,265.617889 
	C244.717957,307.910065 226.034546,348.867523 207.281906,389.976746 
	C210.137390,391.863068 212.498550,393.199890 215.348709,393.850311 
	C238.677979,399.174377 261.984680,404.597290 286.093201,410.247498 
M424.205292,199.292938 
	C399.353821,173.915680 374.502350,148.538422 349.124756,122.623955 
	C323.821075,163.636017 299.134888,203.647293 274.448669,243.658554 
	C274.707275,244.174133 274.965851,244.689713 275.224457,245.205292 
	C334.139618,240.080750 393.054810,234.956207 451.969971,229.831665 
	C452.090729,229.357635 452.211487,228.883621 452.332245,228.409592 
	C443.118713,218.874069 433.905212,209.338547 424.205292,199.292938 
M492.548767,348.831238 
	C481.922516,318.619598 471.296234,288.407959 460.143555,256.699615 
	C432.786957,313.227509 406.121735,368.326874 379.190399,423.976074 
	C383.650787,423.611542 386.503632,421.739929 389.546448,420.519348 
	C425.527802,406.086243 461.454773,391.517487 497.447083,377.111908 
	C500.864471,375.744171 501.593323,374.138824 500.282013,370.742371 
	C497.587494,363.763214 495.250092,356.646210 492.548767,348.831238 
M249.116684,266.698029 
	C250.461975,263.833740 251.620712,260.861786 253.196930,258.130798 
	C255.476776,254.180695 254.378952,252.032578 250.425491,249.946640 
	C234.075256,241.319839 217.892639,232.375778 201.608109,223.623322 
	C200.129623,222.828690 198.696533,221.247162 195.957489,222.599670 
	C197.564346,271.568024 199.179123,320.778015 200.793900,369.988007 
	C201.208481,370.016968 201.623047,370.045898 202.037628,370.074860 
	C217.621140,335.842499 233.204651,301.610168 249.116684,266.698029 
M251.934906,179.491196 
	C236.094772,189.389267 220.254623,199.287338 203.502502,209.755280 
	C223.349472,220.494644 241.965012,230.567673 260.838013,240.780014 
	C282.785858,205.181213 304.272888,170.329865 325.759888,135.478516 
	C325.333618,135.101746 324.907318,134.724976 324.481018,134.348206 
	C300.510498,149.278000 276.539948,164.207794 251.934906,179.491196 
M492.592926,213.345062 
	C490.529602,211.663956 489.838501,213.964874 488.912720,214.811386 
	C482.896698,220.312424 477.106018,226.062897 471.022644,231.486130 
	C467.723419,234.427322 466.958038,237.323608 468.508667,241.595413 
	C475.484741,260.813782 482.162506,280.140350 488.953979,299.425751 
	C493.282715,311.717987 497.622101,324.006470 501.956757,336.296631 
	C501.190948,318.246338 499.880035,300.372345 498.423798,282.510162 
	C496.561218,259.663605 494.581573,236.826614 492.592926,213.345062 
M483.242493,202.071564 
	C486.634186,199.309372 483.663452,198.272064 481.799713,197.189575 
	C451.068817,179.340714 420.313507,161.533875 388.858002,143.308731 
	C389.449280,144.460495 389.567139,144.921921 389.855103,145.217926 
	C413.283051,169.302124 436.742981,193.355286 460.135925,217.473389 
	C462.507843,219.918854 464.361359,219.972931 466.800049,217.585617 
	C472.028473,212.467346 477.442017,207.538132 483.242493,202.071564 
M260.888367,419.577423 
	C270.068573,424.647064 279.245361,429.722870 288.429718,434.785004 
	C305.489716,444.187988 322.545593,453.598541 339.629547,462.957825 
	C341.390991,463.922821 343.518097,466.043793 345.248444,463.254425 
	C349.770355,455.965027 354.044678,448.522064 358.873413,440.371033 
	C323.907349,432.301605 289.939178,424.462494 255.970993,416.623352 
	C255.911652,416.812073 255.852295,417.000793 255.792953,417.189514 
	C257.292786,417.856293 258.792633,418.523102 260.888367,419.577423 
M430.801361,418.390442 
	C414.432434,424.918579 398.303314,432.169891 381.605591,437.706299 
	C371.422546,441.082703 369.329559,449.543457 364.668610,456.638763 
	C364.939606,456.956146 365.210602,457.273499 365.481598,457.590881 
	C391.187897,443.102783 416.894226,428.614716 442.600525,414.126617 
	C442.541473,413.990082 442.482452,413.853546 442.423401,413.717010 
	C438.796814,415.203491 435.170227,416.690002 430.801361,418.390442 
z"/>
</svg>