<svg version="1.1" id="Layer_1" xmlns="http://www.w3.org/2000/svg" xmlns:xlink="http://www.w3.org/1999/xlink" x="0px" y="0px"
	 width="100%" viewBox="0 0 688 688" enable-background="new 0 0 688 688" xml:space="preserve">
<path fill="#000000" opacity="1.000000" stroke="none" 
	d="
M374.902313,169.111435 
	C417.389832,220.889313 459.647675,272.395935 501.909149,323.899597 
	C509.621948,333.299103 517.213623,342.803375 525.142212,352.017487 
	C527.993286,355.330841 527.412964,356.997101 524.122314,359.437500 
	C486.001190,387.708923 447.975555,416.109192 409.924622,444.475342 
	C393.237427,456.915283 376.458130,469.234833 359.927338,481.879303 
	C355.739716,485.082428 352.877289,485.549591 348.302094,482.114563 
	C294.096436,441.417206 239.700546,400.973236 185.361755,360.453186 
	C179.610275,356.164337 179.604095,356.113922 184.010223,350.742004 
	C238.934250,283.779205 293.863708,216.820831 348.813904,149.879501 
	C350.268585,148.107391 351.527039,146.083237 354.514984,144.500534 
	C361.192749,152.562836 367.933319,160.701004 374.902313,169.111435 
M298.936462,231.409363 
	C266.706329,270.689087 234.521851,310.006500 202.168915,349.184784 
	C199.232697,352.740417 199.272812,354.539001 203.044647,357.338898 
	C250.137390,392.296387 297.119843,427.402435 344.147247,462.448029 
	C345.004822,463.087097 345.757843,464.271667 347.282257,463.587372 
	C347.282257,366.940765 347.282257,270.275604 347.282257,172.558945 
	C330.863312,192.523148 315.108276,211.680038 298.936462,231.409363 
M397.829102,217.652924 
	C385.764191,202.996063 373.699310,188.339188 360.802917,172.672195 
	C360.802917,270.819427 360.802917,367.246918 360.802917,464.683777 
	C410.815735,427.428314 460.036743,390.762695 509.632141,353.818207 
	C472.237305,308.273499 435.258911,263.235931 397.829102,217.652924 
z"/>
</svg>