<svg version="1.1" id="Layer_1" xmlns="http://www.w3.org/2000/svg" xmlns:xlink="http://www.w3.org/1999/xlink" x="0px" y="0px"
	 width="100%" viewBox="0 0 688 688" enable-background="new 0 0 688 688" xml:space="preserve">
<path fill="#000000" opacity="1.000000" stroke="none" 
	d="
M350.749939,482.300079 
	C303.842255,455.223358 257.273834,428.291626 210.631378,401.488739 
	C207.122726,399.472504 205.903214,397.066559 205.910690,393.090393 
	C206.013901,338.276001 206.038879,283.461121 205.861801,228.647064 
	C205.844696,223.350739 207.396957,220.292236 212.138412,217.578217 
	C259.984711,190.190781 307.697540,162.569855 355.382416,134.901703 
	C358.658295,133.000961 361.133392,132.885605 364.491608,134.835266 
	C412.599152,162.764633 460.772827,190.580383 508.997742,218.306671 
	C512.641663,220.401718 514.061951,222.950348 514.054749,227.103470 
	C513.958679,282.584320 513.955017,338.065491 514.047913,393.546326 
	C514.054321,397.374939 512.685791,399.599640 509.402405,401.488373 
	C462.338928,428.561035 415.251831,455.595520 368.417023,483.059692 
	C361.839569,486.916718 356.702698,487.489929 350.749939,482.300079 
M314.774445,276.678040 
	C328.075836,284.283417 341.440491,291.781494 354.638336,299.562500 
	C358.375671,301.765900 361.289459,301.833405 365.163940,299.600861 
	C403.552032,277.481293 442.079803,255.604385 480.511719,233.560562 
	C485.023834,230.972488 489.909241,228.883957 494.082214,225.168167 
	C493.191162,224.552078 492.683014,224.145279 492.125793,223.823334 
	C449.151062,198.992981 406.155090,174.199265 363.233398,149.277573 
	C360.381073,147.621414 358.409729,148.344955 355.957764,149.765259 
	C313.874817,174.141251 271.756653,198.456406 229.665298,222.817947 
	C228.466293,223.511902 226.783401,223.747513 226.271408,225.912338 
	C255.523621,242.698120 284.826813,259.513123 314.774445,276.678040 
M353.648468,319.791870 
	C354.043884,316.034912 353.124176,313.382874 349.370361,311.258911 
	C307.616089,287.633972 265.978577,263.802673 224.293732,240.054855 
	C222.919815,239.272125 221.671097,237.936172 219.318832,238.530502 
	C219.318832,240.105911 219.318817,241.736160 219.318817,243.366409 
	C219.318939,289.692505 219.495636,336.019989 219.131378,382.343262 
	C219.075882,389.398682 221.564468,392.849854 227.444321,396.188965 
	C265.684326,417.905121 303.686401,440.039886 341.801819,461.976044 
	C345.459900,464.081299 348.930511,466.642365 353.647858,468.116364 
	C353.647858,418.635651 353.647858,369.678864 353.648468,319.791870 
M500.718811,361.500031 
	C500.718811,320.428772 500.718811,279.357513 500.718811,237.613968 
	C498.717499,238.510818 497.493744,238.940140 496.386078,239.572754 
	C454.454407,263.521057 412.551422,287.519684 370.577148,311.393005 
	C367.172333,313.329559 366.265106,315.756134 366.273346,319.480621 
	C366.379547,367.455872 366.336517,415.431427 366.366699,463.406891 
	C366.367584,464.819550 365.819183,466.395935 366.993011,467.615326 
	C368.364471,467.934601 369.324463,467.126404 370.291779,466.568512 
	C412.559021,442.189362 454.803101,417.770050 497.086548,393.419037 
	C499.712952,391.906494 500.800751,390.020538 500.747742,386.986633 
	C500.605133,378.826752 500.710602,370.662537 500.718811,361.500031 
z"/>
</svg>