<svg version="1.1" id="Layer_1" xmlns="http://www.w3.org/2000/svg" xmlns:xlink="http://www.w3.org/1999/xlink" x="0px" y="0px"
	 width="100%" viewBox="0 0 688 688" enable-background="new 0 0 688 688" xml:space="preserve">
<path fill="#000000" opacity="1.000000" stroke="none" 
	d="
M356.860016,143.127838 
	C407.399170,193.202576 457.687073,243.026749 507.970978,292.854919 
	C516.087463,300.897827 516.096741,300.923553 508.014160,308.944031 
	C456.817383,359.747498 405.613190,410.543457 354.408234,461.338684 
	C349.549377,466.158630 349.544281,466.142914 344.608398,461.432007 
	C289.785522,409.108307 234.980026,356.766296 180.084167,304.519257 
	C177.131516,301.709045 177.317795,300.123077 180.178925,297.400665 
	C223.859116,255.837494 267.434631,214.164352 311.045654,172.528488 
	C322.249054,161.832504 333.497131,151.183380 344.711823,140.499207 
	C349.538055,135.901260 349.524048,135.884720 354.128693,140.410324 
	C354.960266,141.227646 355.781433,142.055588 356.860016,143.127838 
M343.842621,287.500000 
	C343.842621,245.320389 343.842621,203.140778 343.842621,160.961166 
	C343.385620,160.878647 342.928650,160.796112 342.471649,160.713593 
	C295.362610,205.667908 248.253555,250.622223 200.361511,296.323730 
	C248.859406,320.101074 296.131927,343.277679 343.846130,366.670837 
	C343.846130,339.940338 343.846130,314.220184 343.842621,287.500000 
M418.279022,335.714722 
	C443.602203,323.301025 468.925415,310.887329 494.920868,298.144104 
	C448.597687,252.298584 402.983765,207.154999 357.369812,162.011429 
	C356.343231,229.739609 357.827271,296.893280 357.239197,365.572052 
	C378.267792,355.283936 397.937714,345.660492 418.279022,335.714722 
M264.290436,342.264771 
	C248.066040,334.333649 231.841629,326.402527 215.617233,318.471405 
	C215.374832,318.818054 215.132431,319.164703 214.890045,319.511353 
	C257.075439,359.748871 299.260834,399.986389 342.477356,441.207428 
	C342.923431,432.903839 343.427856,426.166077 343.614502,419.419525 
	C343.895416,409.264893 343.435272,399.058899 344.315399,388.964111 
	C344.789490,383.526459 343.354889,380.835480 338.569397,378.534821 
	C313.960938,366.704285 289.488617,354.590607 264.290436,342.264771 
M427.315826,345.911072 
	C405.347809,356.658966 383.404663,367.458374 361.382324,378.093781 
	C358.419281,379.524689 357.250854,381.270111 357.256775,384.579041 
	C357.274689,394.557678 357.184540,404.530121 356.497650,414.511688 
	C355.924652,422.837860 356.380127,431.234802 356.380127,440.881561 
	C396.284729,401.395111 435.169739,362.917572 474.054749,324.440002 
	C473.772217,324.096405 473.489685,323.752838 473.207153,323.409241 
	C458.131256,330.790802 443.055328,338.172363 427.315826,345.911072 
z"/>
</svg>