<?xml version="1.0" encoding="iso-8859-1"?>
<!-- Uploaded to: SVG Repo, www.svgrepo.com, Generator: SVG Repo Mixer Tools -->
<svg fill="#000000" height="800px" width="800px" version="1.1" id="Layer_1" xmlns="http://www.w3.org/2000/svg" xmlns:xlink="http://www.w3.org/1999/xlink" 
	 viewBox="0 0 469.999 469.999" xml:space="preserve">
<g>
	<g>
		<g>
			<path d="M467.802,39.472l-6.063-6.063l1.428-1.953c2.183-2.986,1.863-7.118-0.754-9.732L448.264,7.588
				c-2.616-2.613-6.745-2.93-9.727-0.749l-1.945,1.422l-6.065-6.065c-2.928-2.928-7.677-2.929-10.606,0.001
				c-2.929,2.929-2.929,7.678,0.001,10.606l4.416,4.416l-12.255,8.959l-6.065-6.064c-2.928-2.928-7.677-2.929-10.606,0.001
				c-2.929,2.929-2.929,7.678,0.001,10.606l4.416,4.416l-12.254,8.958l-6.065-6.064c-2.928-2.928-7.677-2.929-10.606,0.001
				c-2.929,2.929-2.929,7.678,0.001,10.606l4.416,4.416l-12.255,8.958l-6.064-6.063c-2.93-2.928-7.678-2.928-10.607,0
				c-2.929,2.93-2.929,7.678,0,10.607l4.416,4.416l-12.253,8.958l-6.065-6.063c-2.93-2.928-7.677-2.929-10.606,0.001
				c-2.929,2.929-2.929,7.678,0.001,10.606l5.303,5.302l-85.189,85.189c-7.221-1.528-15.11-2.313-23.535-2.313
				c-28.101,0-62.844,8.691-97.83,24.475c-32.505,14.663-62.173,34.099-81.397,53.322c-25.771,25.77-39.701,58.495-39.227,92.145
				c0.461,32.641,14.221,64.123,38.745,88.648c24.992,24.99,57.073,38.755,90.336,38.757c33.029,0,65.155-13.937,90.458-39.238
				c22.507-22.508,44.894-58.755,59.885-96.962c15.989-40.75,21.457-78.074,15.601-105.803l85.191-85.192l5.304,5.303
				c1.465,1.464,3.384,2.196,5.303,2.196s3.839-0.732,5.304-2.197c2.929-2.929,2.929-7.678-0.001-10.606l-6.064-6.063l8.955-12.249
				l4.415,4.415c1.465,1.464,3.385,2.196,5.304,2.196c1.919,0,3.839-0.732,5.304-2.196c2.929-2.93,2.929-7.678,0-10.607
				l-6.063-6.063l8.959-12.254l4.414,4.415c1.465,1.465,3.384,2.197,5.304,2.197c1.919,0,3.839-0.732,5.303-2.196
				c2.93-2.929,2.93-7.678,0.001-10.606l-6.063-6.063l8.959-12.254l4.414,4.414c1.465,1.465,3.384,2.197,5.304,2.197
				c1.919,0,3.839-0.732,5.303-2.196c2.93-2.929,2.93-7.678,0.001-10.606l-6.063-6.063l8.959-12.255l4.414,4.415
				c1.465,1.465,3.384,2.197,5.304,2.197c1.919,0,3.839-0.732,5.303-2.196C470.73,47.149,470.73,42.4,467.802,39.472z
				 M208.941,420.154C186.145,442.951,158.537,455,129.098,455c-29.262-0.002-57.577-12.206-79.735-34.363
				c-46.094-46.095-45.892-113.208,0.481-159.58c35.448-35.449,111.664-73.404,168.62-73.404c8.037,0,15.447,0.785,22.061,2.337
				l39.484,39.485C292.653,283.304,251.926,377.171,208.941,420.154z M286.783,215.034l-31.819-31.819l10.985-10.985l31.819,31.819
				L286.783,215.034z M308.376,193.441l-31.819-31.819l11.797-11.797l37.123,26.517L308.376,193.441z M336.229,165.589
				l-37.123-26.517l17.101-17.101l31.82,31.82L336.229,165.589z M358.634,143.184l-31.82-31.82l10.982-10.982l31.822,31.817
				L358.634,143.184z M379.339,120.706l-30.048-30.043l92.915-67.925l5.059,5.053L379.339,120.706z"/>
			<path d="M160.488,398.604c-2.924,2.926-7.682,2.926-10.605,0l-2.301-2.301c9.625-14.553,8.035-34.391-4.77-47.197l-21.92-21.92
				c-12.808-12.806-32.644-14.394-47.197-4.77l-2.302-2.302c-2.925-2.924-2.925-7.682,0-10.605c2.929-2.93,2.929-7.678,0-10.607
				c-2.93-2.928-7.678-2.928-10.607,0c-8.772,8.773-8.772,23.047,0,31.82l78.489,78.489c4.387,4.386,10.148,6.579,15.91,6.579
				s11.523-2.193,15.91-6.579c2.929-2.93,2.929-7.678,0-10.607C168.166,395.677,163.418,395.677,160.488,398.604z M136.58,385.301
				l-51.883-51.883c8.36-3.978,18.677-2.536,25.587,4.376l21.92,21.92C139.116,366.625,140.558,376.942,136.58,385.301z"/>
			<path d="M207.233,222.765c-10.685,0-20.729,4.161-28.285,11.716c-15.595,15.596-15.595,40.973,0.002,56.57
				c2.899,2.898,6.204,5.322,9.821,7.205c1.106,0.575,2.289,0.849,3.456,0.849c2.707-0.001,5.322-1.472,6.659-4.04
				c1.912-3.674,0.483-8.203-3.191-10.115c-2.259-1.175-4.324-2.691-6.14-4.506c-9.747-9.748-9.747-25.608,0-35.355
				c4.722-4.723,11-7.323,17.678-7.323s12.955,2.601,17.678,7.323c4.722,4.722,7.322,10.999,7.322,17.677
				s-2.601,12.956-7.323,17.678c-1.813,1.814-3.88,3.331-6.14,4.508c-3.675,1.912-5.103,6.441-3.189,10.115
				c1.914,3.676,6.442,5.103,10.115,3.189c3.619-1.884,6.924-4.309,9.821-7.205c7.555-7.556,11.716-17.601,11.716-28.285
				c0-10.685-4.161-20.729-11.716-28.283C227.963,226.926,217.918,222.765,207.233,222.765z"/>
		</g>
	</g>
</g>
</svg>