<?xml version="1.0" encoding="utf-8"?>

<!DOCTYPE svg PUBLIC "-//W3C//DTD SVG 1.1//EN" "http://www.w3.org/Graphics/SVG/1.1/DTD/svg11.dtd">
<!-- Uploaded to: SVG Repo, www.svgrepo.com, Generator: SVG Repo Mixer Tools -->
<svg height="800px" width="800px" version="1.1" id="_x32_" xmlns="http://www.w3.org/2000/svg" xmlns:xlink="http://www.w3.org/1999/xlink" 
	 viewBox="0 0 512 512"  xml:space="preserve">
<style type="text/css">
	.st0{fill:#000000;}
</style>
<g>
	<path class="st0" d="M437.016,74.984C390.75,28.677,326.64-0.016,255.996,0c-70.628-0.016-134.73,28.677-181.02,74.984
		C28.677,121.258,0,185.36,0,256.004C0,326.64,28.677,390.75,74.976,437.016c46.291,46.299,110.392,75.001,181.02,74.984
		c70.644,0.017,134.754-28.685,181.02-74.984C483.323,390.75,512.017,326.64,512,256.004
		C512.017,185.36,483.323,121.258,437.016,74.984z M412.951,99.05c21.6,21.624,38.712,47.671,49.964,76.635H313.621L267.708,34.348
		C324.38,37.291,375.298,61.43,412.951,99.05z M186.018,299.961l48.855,35.49l-79.052,57.436L186.018,299.961z M172.588,258.643
		l-79.044-57.436h97.71L172.588,258.643z M194.31,274.432l23.787-73.225h76.99l23.786,73.225l-62.285,45.23L194.31,274.432z
		 M327.158,299.961l30.206,92.926l-79.053-57.436L327.158,299.961z M321.914,201.207h97.727l-79.053,57.436L321.914,201.207z
		 M256.588,82.751l30.206,92.935H226.39L256.588,82.751z M99.066,99.05c37.882-37.883,89.277-62.072,146.426-64.752l-1.052,3.206
		l-44.878,138.181H49.085C60.338,146.721,77.433,120.675,99.066,99.05z M99.066,412.951c-40.208-40.225-65.014-95.606-65.03-156.946
		c0.016-20.951,2.958-41.187,8.383-60.387l121.892,88.562l-47.113,144.954C110.861,424.071,104.795,418.679,99.066,412.951z
		 M255.996,477.965c-45.452-0.017-87.634-13.669-122.795-37.077l123.386-89.655l122.861,89.244
		C344.131,464.156,301.744,477.948,255.996,477.965z M412.951,412.951c-5.458,5.449-11.219,10.594-17.22,15.452L348.874,284.18
		l120.921-87.864c5.276,18.994,8.17,38.992,8.17,59.688C477.948,317.344,453.143,372.726,412.951,412.951z"/>
</g>
</svg>