<?xml version="1.0" standalone="no"?>
<!DOCTYPE svg PUBLIC "-//W3C//DTD SVG 20010904//EN"
 "http://www.w3.org/TR/2001/REC-SVG-20010904/DTD/svg10.dtd">
<svg version="1.0" xmlns="http://www.w3.org/2000/svg"
 width="1141.000000pt" height="1280.000000pt" viewBox="0 0 1141.000000 1280.000000"
 preserveAspectRatio="xMidYMid meet">
<metadata>
Created by potrace 1.15, written by Peter Selinger 2001-2017
</metadata>
<g transform="translate(0.000000,1280.000000) scale(0.100000,-0.100000)"
fill="#000000" stroke="none">
<path d="M5085 12794 c-934 -34 -1753 -122 -2660 -285 -668 -120 -1421 -294
-2125 -490 -96 -27 -181 -49 -189 -49 -8 0 -25 10 -38 22 -22 20 -23 21 -23 2
0 -10 -7 -118 -15 -239 -50 -766 -43 -1611 20 -2335 229 -2606 1151 -4940
2699 -6830 750 -916 1582 -1676 2626 -2400 265 -184 297 -200 359 -181 92 27
714 466 1118 789 638 509 1275 1133 1769 1732 750 909 1370 1954 1822 3070
520 1287 832 2678 927 4135 38 586 35 1375 -6 2028 l-12 187 -37 10 c-449 121
-1398 340 -1865 431 -866 168 -1606 276 -2335 338 -562 49 -839 61 -1425 65
-286 2 -560 2 -610 0z"/>
</g>
</svg>
