<?xml version="1.0" encoding="utf-8"?>
<!-- Uploaded to: SVG Repo, www.svgrepo.com, Generator: SVG Repo Mixer Tools -->
<svg fill="#000000" width="800px" height="800px" viewBox="0 0 32 32" version="1.1" xmlns="http://www.w3.org/2000/svg">
<title>broadsword</title>
<path d="M0.857 28.712l0.949-0.949 2.525 2.525-0.949 0.949-2.525-2.525zM14.057 20.781c0-1.516-1.23-2.746-2.746-2.746s-2.746 1.23-2.746 2.746c0 1.516 1.229 2.746 2.746 2.746s2.747-1.229 2.746-2.746zM8.577 21.043l-0.025-0.025-5.198 5.198 2.525 2.525 5.198-5.198-0.029-0.029c-1.307-0.125-2.347-1.164-2.471-2.471zM8.564 20.781c0-1.422 1.082-2.592 2.467-2.732-1.46-1.66-2.757-3.465-3.87-5.394l-3.486 3.486 4.902 4.902c-0.008-0.086-0.013-0.174-0.013-0.262zM14.043 21.061c-0.14 1.385-1.31 2.467-2.732 2.466-0.089-0-0.176-0.005-0.263-0.013l4.908 4.908 3.486-3.486c-1.939-1.12-3.745-2.419-5.4-3.875zM25.484 2.332l-13.219 13.219c0.204 0.301 0.335 0.669 0.335 1.057 0 0.601-0.287 1.139-0.73 1.484 1.085 0.225 1.935 1.090 2.139 2.182 0.344-0.457 0.891-0.754 1.502-0.754 0.388 0 0.735 0.11 1.031 0.309l13.219-13.219 0.928-5.205-5.205 0.928zM1.311 27.268l3.517 3.517 1.547-1.547-3.517-3.517-1.547 1.547z"></path>
</svg>