<svg xmlns="http://www.w3.org/2000/svg" width="251.354" height="46.857" viewBox="0 0 251.354 46.857">
  <g transform="translate(-119.48 -574.159)">
    <path id="Контур_11" data-name="Контур 11" d="M556.452,852.827l25.973.223,16.507.142,43.123-1.231,23.421.667,28.022.564h23.21l61.1-1.231h13.529l-.663,19.269.663,11.512v7.719h0l.717,6.726c-.333,0-34.759-.779-34.759-.779s-31.6-.38-34.044-.633-21.768.253-22.545,0-22.633,0-22.633,0h-21.48l-20.727-.506-44.357,1.139H571.773l-28.294.886.46-14.677-1-19.234-.34-6.964-.262-4Z" transform="translate(-422.055 -277.05)" fill="rgba(0,0,0,0.2)"/>
    <path id="Контур_11_-_Рамка" data-name="Контур 11 - Рамка" d="M642.055,851.21h.021l23.418.667,28.012.564h23.2l61.109-1.231h14.3l-.688,20.011.662,11.521v7.679l.8,7.516h-.834c-.337,0-33.326-.746-34.774-.779-1.365-.016-31.665-.383-34.107-.637-.442-.046-1.585-.069-3.4-.069-2.377,0-5.593.039-8.7.076-2.959.036-5.754.07-7.725.07a14.463,14.463,0,0,1-2.836-.1c-.205-.029-1.212-.088-6.019-.088-6.625,0-16.314.111-16.411.112H656.576l-20.708-.506-44.357,1.139H571.784l-29.08.91.484-15.443-1-19.2-.339-6.959-.316-4.814,14.931.43,42.459.364Zm148.507,1.5H777.817l-61.109,1.231H693.483l-28.029-.565-23.4-.666-43.115,1.231h-.014l-42.5-.364-13.29-.382.209,3.187.34,6.963,1,19.263-.436,13.91,27.52-.861H591.5l44.366-1.139h.019l20.718.506h21.467c.276,0,9.853-.112,16.423-.112,5.6,0,6.194.076,6.406.137.121.016.6.048,2.45.048,1.961,0,4.752-.034,7.706-.069,3.114-.038,6.334-.077,8.72-.077,1.917,0,3.046.024,3.553.077,2.378.247,33.66.625,33.976.629h.008c.313.007,28.623.648,33.906.762l-.631-5.919v-7.737l-.664-11.525V871.2Z" transform="translate(-422.055 -277.05)"/>
  </g>
</svg>
