<svg xmlns="http://www.w3.org/2000/svg" width="406.518" height="65.933" viewBox="0 0 406.518 65.933">
  <g id="Компонент_5_99" data-name="Компонент 5 – 99" transform="translate(0.81 0.75)">
    <path id="Контур_1" data-name="Контур 1" d="M565.221,853.191l68.872.518,69.913-1.749,37.972.947,45.432.8H825.04L924.1,851.96h21.933l-1.075,27.379,1.075,16.357v10.967h0l1.162,9.557c-.539,0-56.354-1.107-56.354-1.107s-51.239-.539-55.195-.9-35.293.36-36.551,0-36.694,0-36.694,0H727.579l-33.6-.719-71.914,1.618h-32l-45.873,1.258.746-20.854-1.619-27.329-.551-9.894-.426-5.68Z" transform="translate(-542.338 -851.96)" fill="none" stroke="#000" stroke-width="1.5"/>
  </g>
</svg>
