<svg xmlns="http://www.w3.org/2000/svg" width="581.471" height="46.765" viewBox="0 0 581.471 46.765">
  <g transform="translate(-1219.408 -874.25)">
    <path id="Контур_17" data-name="Контур 17" d="M575.1,852.827l98.618.364L773.83,851.96l54.372.667,65.054.564h53.881l141.847-1.231h32.6l-1.626,20.053.86,17.45,1.232,7.724c-.772,0-80.694-.779-80.694-.779s-73.369-.38-79.033-.633-50.535.253-52.337,0-52.541,0-52.541,0H807.584l-48.117-.506-102.974,1.139H610.671l-66.216.809.738-14.521-1.457-19.313-.789-6.964-.609-4Z" transform="translate(677.945 23.04)" fill="rgba(0,0,0,0.2)"/>
    <path id="Контур_17_-_Рамка" data-name="Контур 17 - Рамка" d="M773.83,851.21h.009l54.372.667,65.051.564h53.868l141.853-1.231H1122.4l-1.688,20.815.856,17.359,1.365,8.552h-.879c-.767,0-77.438-.747-80.7-.779-.73,0-73.445-.383-79.059-.633-1.089-.049-3.718-.072-8.037-.072-5.528,0-13,.039-20.22.077-6.865.036-13.349.07-17.914.07-4.992,0-5.954-.041-6.237-.08s-2.536-.105-14.319-.105c-15.388,0-37.889.111-38.115.112H807.576l-48.109-.506-102.975,1.139H610.674l-67.008.818.776-15.271-1.452-19.252-.786-6.935-.74-4.857,33.644.417,98.612.364Zm346.945,1.5h-31.784l-141.853,1.231H893.25l-65.054-.564-54.366-.667-100.112,1.231-98.624-.364-31.882-.4.48,3.152.791,6.992,1.461,19.361,0,.047-.7,13.723,65.426-.8h45.82l102.976-1.139h.008l48.111.506H857.45c.222,0,22.727-.112,38.119-.112,13.674,0,14.294.087,14.527.12.176.024,1.193.066,6.028.066,4.561,0,11.043-.034,17.906-.07,7.225-.038,14.7-.077,20.227-.077,4.342,0,6.993.024,8.1.074,5.584.249,78.27.628,79,.632.756.007,71.081.693,79.81.772l-1.1-6.888L1119.211,872l0-.049Z" transform="translate(677.945 23.04)"/>
  </g>
</svg>
