<svg xmlns="http://www.w3.org/2000/svg" width="530.304" height="420.096" viewBox="0 0 530.304 420.096">
  <path id="Контур_18" data-name="Контур 18" d="M1041.64,851.21h30.554l-.01.759-.892,71.644.892,118.654-.7,151.819.078,76.639h-.751c-.711,0-66.893-2.7-70.01-2.83L794,1271.306l-.038,0-41.729-3.543-64.426,1.781H566.856l-24.966,1.547.014-.811,2.292-137.935v-94.476l-1.331-81.7-.72-63.538V852.423l.774.025,76.019,2.444,24.685-1.083,88.842-.605h.014l128.336,4.087,55.531-1.39Zm29.035,1.5h-29.008L916.39,857.4l-55.58,1.391h-.021L732.447,854.7l-88.8.6-24.7,1.084h-.028l-75.273-2.42v38.654l.72,63.52,1.331,81.711v94.5l-2.278,137.132,23.416-1.45H687.8l64.48-1.783.042,0,41.734,3.543,206.769-3.41h.021c.652.027,61.66,2.518,69.219,2.8l-.076-75.115.7-151.817-.892-118.655V923.6Z" transform="translate(-541.89 -851.21)"/>
</svg>
