<svg xmlns="http://www.w3.org/2000/svg" width="1897.494" height="1072.365" viewBox="0 0 1897.494 1072.365">
  <path id="Background_3" data-name="Background 3" d="M355.824,1227.217h-4.255s-6.46.83-7.4.5c-1.472-.516-.743-.935-.944-2l1.471-5.782.989-4.57c-.044-.322.819-3.622.819-3.622s.782-6.622.976-8.9c.013-.148.68-4.116,1.572-5.4.352-1.565,2.628-2.61,3.5-8.252.6-3.868,1.516-10.488,2-11.549l2.168-16.258c.758-3.585.792-6.147,3.585-30.849l1.217-10.219,1.444-4.513s3.15-6.307,3.388-7.036,1.667-6.746,1.667-6.746c.848-6.436,1.344-16.93.555-32.255-.695-13.491-.7-31.734-1.052-32.089-.729-.746-3.166-12.14-3.166-12.14s-1.826-61.244-1.889-61.432-1.192-9.551-1.192-9.551.089-9.391.764-12.2c.554-2.321,1.91-4.259,3.389-14.9a86.722,86.722,0,0,0-1.072-9.586c-.685-3.1-5.661-13.124-3.081-21.811s-3.094-11.481-2.968-17.146a68.624,68.624,0,0,1,1.371-12.121c.551-3.133-3.766-16.946-4.144-18.394s-4.97-15.382-5.285-17.711-.944-5.338-.944-6.219,1.637-20.094,1.637-20.094a48.367,48.367,0,0,1-1.637-17.358c.871-9.575-.4-8.435,1.6-12.353s1.383-14.787,1.383-15.426v-5.851a43.518,43.518,0,0,0-.638-8.511,61.454,61.454,0,0,1-1.4-9.447c-.484-4.552,1.162-14.043,1.114-14.188s1.259-11.864,1.259-11.864c-.484-1.453-.1-10.992-.242-11.379s-.242-22.226-.291-23.243,1.114-30.652.484-32.153-.533-7.409-.436-7.893,1.84-11.573,1.792-12.4-2.518-9.055-2.227-9.927,1.4-4.213,1.162-6.1-1.114-10.992-.968-11.912,1.259-5.423,1.307-6.924.678-14.478.387-15.4.194-10.169,0-11.234.048-5.617,0-6,2.034-5.036,1.937-5.811-.194-2.712-.63-3a4.425,4.425,0,0,1-2.373-3.1c-.581-2.276.534-10.688.243-12.092a30.163,30.163,0,0,1-.534-6.89c.194-1.985-.436-2.809.581-3.535s-.872-9.394-.581-10.169-.294-17.593-.294-18.368l.436-2.276.92-2.131,4.213-7.6,1.21-3.777.507-15.369c.048-1.5-5.732-32.922-6.458-33.745s-.581-4.406-.581-4.406,2.057-15.445,1.814-16.51-3.073-34.237-3.122-35.593-1.3-11.451-1.3-11.451,1.835-22.784,1.835-23.8-.157-8.279,1.435-10.78c-.368-1.27,2.181-1.542,1.882-4.01-.327-2.7-1.237-3.3-2.02-7.416s-1.008-3.273-.68-8.756a40.375,40.375,0,0,1,1.259-9.115c.359-1.2.252-7.3,0-9.255s-1.259-12.532-1.259-13.6-.378-6.1.818-6.6-.357-22.306,1.279-23.5.692-18.12,0-19.316-.536-2.051-1.417-2.366c-.737-.263-1.856-3.966-1.352-5.791s-.378-5.566,0-8.147-3.84-14.865-2.644-15.935-3.417-7.27,1.241-7.711a98.331,98.331,0,0,1,11.878,0c.189,0,3.558.391,11.268.755s10.261,1.448,13.094.755,11.268-.5,13.723-1.133,5.414-.378,8.12-.63,7.743.5,10.072.252,3.651.126,7.869-.252,21.781-.881,25.243-.755,2.77-.315,7.806.315,4.092.944,8.12,1.007.5,1.07,6.043.252,4.784-.944,9.065-1.259,9.946-1.133,11.583-.881-1.889.378,3.588.378,6.232-.252,9.191,0,10.258-.828,18.3-.881,21.861.378,24,.881,9.631,2.707,10.2,3.147,1.385,1.7,3.148,1.637,4.029-.378,4.344-.881a6.8,6.8,0,0,1,3.21-2.2c1.763-.63,7.743-2.014,8.687-1.7s5.791,1.259,7.491.692a21.615,21.615,0,0,1,5.162-1.448,21.34,21.34,0,0,1,6.924-.441c2.14.252,4.6.315,6.295.441s6.169.755,7.554.755,16.745.881,18.318.378,2.644-.692,6.421-.818,5.351.126,8.435,0a77.125,77.125,0,0,1,8.813.441c2.644.189,4.218.692,8.12,1.007s4.029.63,7.3.378,12.149-1.322,13.975-1.385,4.029-.189,5.288-.252,1.763-.755,2.581-.944a24.733,24.733,0,0,1,4.155-.252,40.316,40.316,0,0,0,4.658.252c4.218,0,4.406.629,7.239.315s14.109,5.779,18.781,6.046,21.4-.441,22.91,0,17.037,3.1,18.17,2.915,27.663,2.77,28.859,2.644,16.5-1.88,21.867,0,34.527,3.113,36.6,2.609,15.248,2.257,18.194,3.1,5.086,1.635,8.359,1.383,10.463-1.761,12.351-1.635,13.156.126,15.863,0,5.164,1.068,8.69,1.635a30.743,30.743,0,0,1,8.884,2.99c1.5.874,18.453,1.511,20.782,1.448s4.249.315,5.949,0,8.347-1.826,9.795-1.951,9.505.818,11.52.818,5.351-.63,7.3-.818a42.787,42.787,0,0,1,8.466.5c1.362.255,6.749,3.081,9.519,3.018s21.157.307,22.349,0,6.563-4.18,8.016-4.4a71.722,71.722,0,0,1,7.713.252c.969.037,15.089-3.5,15.089-3.5s12.068-.3,12.515-.3,7.869-2.844,9.322-2.844,10.939-.149,11.423,0,12.357-.149,13.1,0,6.7-3.008,10.926-3.786c9.915-.293,21.521.1,21.891,0,2.384-.633,48.422-2.125,50.135-2.274s19.8-1.773,22.181-1.811,10.015,1.96,12.436,1.811,20.4.149,24.612,0,20.817-.242,23.722,0,17.972-3.81,20.054-3.907a96.967,96.967,0,0,0,10.023-.194c5.23-.484,28.327-.436,30.409,0s12.709-4.075,14.5-4.511,10.86-2.227,12.845-2.76a21.8,21.8,0,0,1,5.036-1.065c1.888-.1,13.64-1.065,14.657-.726s14.348.92,15.607,1.307,3.2.1,5.327.484,11.767.291,14.188,0,23.146-2.276,24.647-2.518a15.8,15.8,0,0,1,4.781,0c1.259.242,6.889,1.065,7.276,1.065s25.083-1.695,27.553-1.646,13.548.048,14.322.581,9.078,1.162,11.5,1.065,19.441,4.726,20.6,4.839c1.5.145,17.46.582,19.877,0s8.47-1.4,11.812-1.837,35.515-.185,37.97.387,19.953,3.6,22.081,4.067a38.212,38.212,0,0,0,10.462,0c2.537-.491,9.782-1.017,12.494-1.646s12.917-2.518,13.74-2.421,9.753-.823,9.753-.823c2.421-.387,10.75,2.466,11.573,2.272s14.474-3.386,18.735-3.725,9.219-.1,10.913.533,13.026,1.792,14.817,1.743,15.641-.387,15.641-.387,13.026.968,13.51,1.211,5.908,2.034,8.087,1.6a46.428,46.428,0,0,0,7.457-2.421,16.68,16.68,0,0,1,4.939-1.792c1.549-.145,11.137-.242,11.912-.194s35.978-1.259,38.012-1.695,7.8-1.017,9.636-.678,13.123,2.227,14.236,2.712,12.445.63,16.9-.629,3.148-2.276,8.038-2.76a89.854,89.854,0,0,1,13.9,0c.533.194,8.958,2.809,15.2,2.76s26.689-4.261,29.449-4.309,5.762-.629,8.135-.291,4.019.387,7.6.726,5.036,1.6,7.118,1.114,15.2-.194,17.723,0,2.421.048,6.973-.436,16.754-.92,20.289-.436a38.591,38.591,0,0,0,10.363-.484,88.874,88.874,0,0,1,9.491-.968c1.888,0,13.994-.629,15.108-.387s24.115,1.356,25.083,1.356a87.258,87.258,0,0,0,10.556-1.5c1.985-.581,23.969,1.017,25.18.92s7.574,3.495,10.237,3.688,1.792-.194,8.038-1.211,10.992,1.114,14.043.968,6.392-.823,10.169-.629,20.435-.436,21.742,0,9.929,1.341,13.706,1.97,7.919,2.04,10.389,2.476,19.452-.339,23.035,0,15.992-2.912,21.27-2.476a87.155,87.155,0,0,0,12.479,0c2.615-.145,1.719,2.185,1.961,2.476a13.828,13.828,0,0,1,.484,2.76s-5.953,15.034-5.517,16.148.048,5.21,0,6.13-4.922,11.789-4.535,13.339,2.15,16.249,2.44,17.507-2.2,9.543-2.44,10.124c-.028.066,2.312,7.86,2.44,12.064.145,4.745.256,12.033.45,13.534s-9.993,26.59-9.781,29.888c.025.386-1.3,10.27-1.3,10.27-4.892,3.742,2.626,18.244,2.264,19.465.811,2.9,1.914,14.936,1.21,19.794s-2.559,8.329-2.7,10.121c-.014.168-2.619,6.125-2.594,6.782-.921,3.714-1.373,11.846-1.636,13.556-.291,1.888-3.686,13.811-3.686,22.319s-1.8,26.106-1.125,29.253c.056.258,4.878,15.335,4.811,16.173-.441,5.783,3.282,19,3.46,20.115.194,1.211-.678,20.681,0,21.5s3.745,25.8,4.278,28.024,2.562,10.91,2.513,11.491.194,5.729,0,11.3c-.083,2.381-.021,10.574,0,15.3,0,0-.633,17.695,0,21.247s5.672,12.887,5.914,13.614,3.033,5.623,3.842,9.177.751,9.266.848,10.573,2.984,26.574,3.226,29.819-1.4,22.438-3.226,35.843c-.021.129-2.219,39.315-2.171,41.081.048,1.792-2.034,13.752-2.179,14.478s-.1,2.324-.339,4.745.581,4.5.339,5.181,2.518,9.781,2.615,10.75a29.343,29.343,0,0,0,0,3.583c.242,1.307.581,6.2.581,6.973a5.5,5.5,0,0,1-.291,2.857c-.581,2.131-1.356,8.28-1.065,10.169s.727,4.406.775,5.423.968,9.878.92,10.314-1.356,9.636-1.695,11.331a29.8,29.8,0,0,0-.387,5.956c.1,1.114,1.5,7.554,1.5,7.7s.775,6.489.581,8.135,1.21,20.87,1.162,21.064a11.786,11.786,0,0,0-1.162,3.1c-.194,1.4-3.842,8.219-4.92,11.815s-3.388,13.041-2.669,17.9,5.846,12.938,6.04,13.616,1.162,4.855,1.162,5.387-6.068,48.268-5.019,51.906,1.823,11.775,2.6,15.988,2.276,6.779,2.809,8.813-.194,6.053-.291,8.958a14.505,14.505,0,0,0,.872,6.1c.581,1.549,1.114,10.266.629,11.476a46.908,46.908,0,0,0-1.5,5.842c-.823,3.486-1.326,4.95,0,11.454s4.657,11.731,4.772,14.824-.339,5.034-.339,7.31.484,14.43.339,16.9-7.021,34.808-6.731,38.1,2.227,9.684,2.179,11.428.484,7.312,0,10.169.194,10.944.775,12.687,2.179,6.15,2.179,6.15a60.389,60.389,0,0,1,1.3,8.218c.1,3.583-.673,17.569-1.3,20.426s-.932,16.49-.988,18.533,2.634,16.611,2.828,17.628,1.377,2.776,1.55,5.617a70.365,70.365,0,0,1,0,8.862c-.194,1.259,3.2,15.462,3.258,15.883.075.9,2.865,4.917,1.04,6.071-3.129,1.192-8.925-.428-11.249.3s-13.961,1.229-14.446,1.229-8.276-1.672-10.842-1.527-4.366-.235-8.531.3-19.945,1.911-20.429,1.911-23.776-2.808-26.2-2.954-38.545-.872-41.692-.872-26.995-.867-29.344-.678-23.347.875-25.721,1.284-4.665,1.391-8.175,1.524-4.891-.436-11.428,0-34.827.939-37.043,0a60.721,60.721,0,0,0-15.271-2.808c-4.271.024-8.827-.3-9.747-.4s-8.892-.823-13.3,0a38.671,38.671,0,0,0-7.249,1.854c-3.971,1.211-25.809-3.523-28.084-3.474s-10.16,2.1-11.649,3.038-31.748-1.443-43.45-3.038-32.615-2.067-41.02-1.215-20.172-5.545-30.385-6.077-9.894.532-14.788-1.915-13.359-3.311-20.413-2.619-8,.279-10.447-.891-30.161,5.258-34.583,5.426-11.531-4.315-15.787-3.039-36.522-6.5-39.5-6.077-12.576,3.874-20.662,3.342-32.844,4.071-38.589,1.518-30.252.638-41.1,0-28.193,9.311-33.725,10.374-9.681,2.873-11.383,4.468-54.542,3.339-58.478,2.7-19.782-.147-24.676-4.616-16.436-2.766-24.1-3.3-33.724-3.085-37.447-2.128-15.32,3.511-18.83,3.724-6.6-2.128-11.6-1.6-23.155,4.362-25.921,5.213-9.4-2.34-15.463-1.915-49.4.917-57.222,1.277c-9.255.426-41.384.745-43.3,2.34s-2.553,3.4-7.341,3.4-28.4,1.6-30.426,1.6-29.21.532-37.189,0-68.446-7.34-69.3-7.34-8.41.745-14.474,0-29.707.638-32.9,0-5.081-2.766-16.57-2.34-35.958,2.766-39.256,2.872-24.362,3.617-33.3,2.234-11.7-3.4-27.335-2.234-33.517,1.383-34.687,1.7-79.74-9.394-88.054-10.52c-10.213-1.383-31.844-.851-33.334-1.064s-50.545-4.468-52.885-5.745-8.192-3.3-12.128-2.128-15.5,1.064-19.437,0-45.58,5.163-47.68,7.341-12.314,3.131-18.951,2.2-32.008-.924-34.455-1.775a46.653,46.653,0,0,0-19.334-1.277c-8.936,1.277-13.765-.435-21.212-.754s-30.7,2.2-35.392.754-6.887-1.44-12.6-1.44-22.106,3.019-22.682,3.023c-4.954.068-7.432-3.089-15.559-3.884-2.689-.263-19.45-1.892-34.2,0C371.733,1224.8,355.661,1228.374,355.824,1227.217Z" transform="translate(-343.212 -171.192)" fill="#9f9f9f"/>
</svg>
