<svg xmlns="http://www.w3.org/2000/svg" width="531.761" height="46.766" viewBox="0 0 531.761 46.766">
  <path id="Контур_18" data-name="Контур 18" d="M753.787,851.21h.01l49.665.667,59.411.564h49.216l129.565-1.231h30.554l-.65,21.549,1.678,25.182h-.8c-.7,0-71.284-.752-74.288-.784-2.733-.015-67.088-.383-72.219-.633-.993-.049-3.392-.072-7.334-.072-5.049,0-11.871.039-18.468.077-6.271.036-12.194.07-16.364.07-4.569,0-5.454-.041-5.717-.082s-2.345-.1-13.06-.1c-14.055,0-34.608.111-34.814.113H784.61l-43.942-.506-94.059,1.139H604.759l-61.273.819.709-15.273-1.327-19.257-.718-6.937-.675-4.851,30.8.418,90.07.364Zm316.875,1.5h-29.008l-129.565,1.231H862.866l-59.421-.564-49.657-.667-91.444,1.231-90.086-.364-29.055-.394.439,3.158.723,6.989,1.334,19.357,0,.043-.637,13.725,59.7-.8h41.851l94.062-1.139h.009l43.945.506h45.545c.2,0,20.759-.113,34.818-.113,12.5,0,13.072.088,13.288.121.168.024,1.1.064,5.489.064,4.166,0,10.087-.034,16.355-.07,6.6-.038,13.424-.077,18.477-.077,3.967,0,6.39.024,7.407.074,5.1.249,71.488.628,72.158.632.7.007,65.478.7,73.474.777l-1.576-23.648v-.036Z" transform="translate(-541.475 -851.21)"/>
</svg>
