<svg xmlns="http://www.w3.org/2000/svg" width="1795.737" height="982.8" viewBox="0 0 1795.737 982.8">
  <path id="Контур_18" data-name="Контур 18" d="M542.721,859.9l.769.02,217.188,5.609L883.632,862.3h.02l115.33,3.226,198.5,7.451L1652.749,862.3h569.157l114.759-2.4v161.539l-7.561,280.142v380.124l8.518,159.621h-.791c-2.378,0-227.982-6.415-237.8-6.694l-702.47,8.066-.026,0-141.861-8.385L1033.25,1842.7h-.022l-191.1-4.172H624.81l-82.925,3.577.019-.8,7.786-326.24,4.4-245.143L545.169,1098.4l-2.447-150.254Zm1792.443,161.51V861.435L2221.906,863.8H1652.749l-455.278,10.678h-.023l-198.522-7.452L883.63,863.8l-122.95,3.225h-.02l-216.439-5.59v86.693l2.447,150.233,8.917,171.53v.026l-4.4,245.174-7.766,325.442,81.37-3.509H842.149l191.087,4.171,221.452-8.388.036,0L1396.6,1841.2l702.449-8.065h.015c2.285.065,221.928,6.31,236.979,6.677l-8.435-158.084V1301.543l7.561-280.142Z" transform="translate(-541.885 -859.899)"/>
</svg>
