<svg xmlns="http://www.w3.org/2000/svg" width="581.317" height="46.843" viewBox="0 0 581.317 46.843">
  <path id="Контур_22" data-name="Контур 22" d="M773.8,851.21h.009l54.365.667,65.043.564h53.861l141.835-1.231h32.152v19.927l1.714,26.8h-.8c-.767,0-77.428-.747-80.691-.779-.73,0-73.436-.383-79.049-.633-1.089-.049-3.717-.072-8.034-.072-5.527,0-12.994.039-20.216.077-6.864.036-13.348.07-17.913.07-4.993,0-5.956-.041-6.239-.08s-2.535-.105-14.317-.105c-15.386,0-37.884.111-38.11.112H807.542l-48.1-.506-102.961,1.139H610.667l-66.431.9V882.831l-1.247-19.384-.785-6.931-.74-4.857,33.64.417,98.6.364Zm345.766,1.5h-30.646l-141.835,1.231H893.2l-65.045-.564L773.8,852.71l-100.1,1.231-98.611-.364-31.878-.4.48,3.152.792,7,1.251,19.475v13.724l64.926-.876h45.814l102.963-1.139h.008l48.1.506h49.858c.222,0,22.724-.112,38.114-.112,13.672,0,14.292.087,14.525.12.176.025,1.193.066,6.03.066,4.561,0,11.043-.034,17.905-.07,7.224-.038,14.693-.077,20.224-.077,4.34,0,6.989.024,8.1.074,5.583.25,78.26.628,78.993.632.759.007,71.51.7,79.88.772l-1.614-25.268Z" transform="translate(-541.463 -851.21)"/>
</svg>
