<svg xmlns="http://www.w3.org/2000/svg" width="461.675" height="46.846" viewBox="0 0 461.675 46.846">
  <path id="Контур_21" data-name="Контур 21" d="M726.025,851.21h.012l43.144.667,51.611.564H863.54L976.1,851.21h25.72l-1.268,20.006,2.616,26.72h-.827c-.611,0-61.449-.747-64.039-.779-2.374-.015-58.283-.383-62.745-.634-.859-.048-2.939-.072-6.361-.072-4.385,0-10.311.039-16.041.077-5.448.036-10.594.07-14.218.07-3.954,0-4.743-.04-4.995-.084-.268-.038-2.1-.1-11.317-.1-12.209,0-30.063.111-30.242.112H752.8l-38.17-.506-81.71,1.139H596.565l-52.921.9.891-15.426L542.7,863.453l-.625-6.956-.585-4.839,26.852.419,78.245.364Zm274.193,1.5H976.1l-112.557,1.231H820.78l-51.62-.564-43.136-.667-79.439,1.231-78.26-.364-25.14-.393.383,3.167.626,6.963,1.845,19.287,0,.057-.8,13.87,51.325-.872h36.353l81.715-1.139h.01l38.176.506h39.563c.174,0,18.033-.112,30.247-.112,10.875,0,11.365.087,11.575.124.153.023.977.062,4.737.062,3.619,0,8.762-.034,14.208-.07,5.733-.038,11.661-.077,16.051-.077,3.449,0,5.558.024,6.445.074,4.424.249,62.092.628,62.674.631.6.007,55.733.685,63.2.77l-2.466-25.185,0-.06Z" transform="translate(-541.49 -851.21)"/>
</svg>
